# xmcd
#
# Track frame offsets: 
#        150
#        10740
#        21794
#        32595
#        45586
#        45910
#        54080
#        54428
#        55223
#        66869
#        69261
#        78186
#        78493
#        79200
#        87151
#        89597
#        101809
#        110253
#
# Disc length: 1618 seconds
#
# Revision: 0
# Processed by: cddbd v1.5.2PL0 Copyright (c) Steve Scherf et al.
# Submitted via: ExactAudioCopy v0.95b3
#
DISCID=d1065012
DTITLE=The Beatles  - Way Beyond Compare - Episode 21 Studio and Pop Go 
DTITLE=+ The Beat Show (1 July-3 July 1963)  FLAC
DYEAR=1900
DGENRE=
TTITLE0=She Loves You - RM from unknown takes
TTITLE1=She Loves You - RS1 (fake stereo)
TTITLE2=She Loves You - RS2 (fake stereo)
TTITLE3=01 That's All Right (Mama)
TTITLE4=01A 'That's All Right With Me, Great'
TTITLE5=02 There's A Place
TTITLE6=02A 'From The Beatles' New Ep'
TTITLE7=02B 'Couldn't Find One For A Carol'
TTITLE8=03 Carol
TTITLE9=03A 'I Haven't Got A Passport'
TTITLE10=04 Soldier Of Love (Lay Down Your Arms)
TTITLE11=04A 'That Was John Lennon Who Got Fell In'
TTITLE12=04B 'With These Haircuts'
TTITLE13=05 Lend Me Your Comb
TTITLE14=05A 'A Little Rhyme'
TTITLE15=06 Clarabella
TTITLE16=02 A Taste Of Honey
TTITLE17=03 Twist And Shout
EXTD=
EXTT0=
EXTT1=
EXTT2=
EXTT3=
EXTT4=
EXTT5=
EXTT6=
EXTT7=
EXTT8=
EXTT9=
EXTT10=
EXTT11=
EXTT12=
EXTT13=
EXTT14=
EXTT15=
EXTT16=
EXTT17=
PLAYORDER=
